<svg width="535" height="427" viewBox="0 0 535 427" fill="none" xmlns="http://www.w3.org/2000/svg">
<path fill-rule="evenodd" clip-rule="evenodd" d="M207.569 18.5784C112.757 49.0824 31.4074 75.0974 19.7974 78.6264C11.8754 81.0354 8.19934 82.7064 5.89934 84.9444C-2.07966 92.7124 -1.95069 104.456 6.20031 112.18C14.9613 120.483 28.7033 118.009 34.5963 107.067L36.5243 103.487H267.175H497.826L499.02 106.37C501.416 112.154 509.517 117.515 515.787 117.465C522.102 117.415 530.698 111.278 533.005 105.172C534.477 101.277 534.335 95.0434 532.688 91.2054C530.084 85.1364 525.56 81.7584 516.234 78.9164C511.468 77.4644 454.244 59.2064 389.069 38.3434C323.894 17.4814 269.669 0.2284 268.569 0.00439955C267.469 -0.2196 240.019 8.13841 207.569 18.5784ZM158.069 42.9414C97.8443 62.2554 47.8943 78.3434 47.0693 78.6934C46.2443 79.0434 145.694 79.3294 268.069 79.3294H490.569L482.069 76.4664C477.394 74.8914 447.244 65.2124 415.069 54.9564C338.656 30.6004 279.942 11.8514 273.069 9.61442L267.569 7.82441L158.069 42.9414ZM225.069 36.9354C202.794 44.8014 177.628 53.6794 169.144 56.6664C152.995 62.3504 149.928 64.3864 153.51 67.0464C155.173 68.2814 171.498 68.4874 267.569 68.4874C363.64 68.4874 379.965 68.2814 381.628 67.0464C385.609 64.0894 382.194 62.3864 348.501 50.5254C278.223 25.7834 268.52 22.4494 267.069 22.5404C266.244 22.5924 247.344 29.0704 225.069 36.9354ZM220.397 45.3354L176.225 60.9874L222.223 61.2474C247.521 61.3904 288.637 61.3904 313.59 61.2474L358.96 60.9874L314.12 45.2374C289.458 36.5744 268.22 29.5314 266.924 29.5854C265.629 29.6394 244.692 36.7274 220.397 45.3354ZM14.4573 88.4644C8.09533 91.0444 6.07632 99.9654 10.6293 105.376C17.0903 113.054 29.0693 107.95 29.0693 97.5194V95.4874H267.069H505.069V97.5194C505.069 101.436 507.898 106.347 511.112 108.009C521.428 113.344 530.994 100.03 523.151 91.2534L520.233 87.9874L268.401 87.7974C129.893 87.6934 15.6193 87.9934 14.4573 88.4644ZM267.782 116.909C261.408 118.623 256.187 123.025 252.736 129.595C250.181 134.458 249.936 135.779 250.236 143.067C250.521 149.989 251.004 151.852 253.605 156.067C260.961 167.989 276.857 171.567 289.302 164.103C296.986 159.494 300.276 153.623 300.864 143.469C301.275 136.359 301.043 134.954 298.643 130.049C295.378 123.376 289.641 118.602 282.734 116.81C276.573 115.212 274.031 115.229 267.782 116.909ZM83.0693 141.987V166.487H112.569H142.069V141.987V117.487H138.569H135.069V138.987V160.487H125.569H116.069V138.987V117.487H112.569H109.069V139.023V160.559L99.3193 160.273L89.5693 159.987L89.2993 138.737L89.0294 117.487H86.0493H83.0693V141.987ZM181.069 141.987V166.487H184.035H187.001L187.285 155.737L187.569 144.987L192.268 144.684L196.967 144.382L204.756 155.434C212.355 166.217 212.638 166.487 216.366 166.487C219.151 166.487 219.986 166.148 219.447 165.237C219.04 164.55 215.146 158.911 210.793 152.707L202.879 141.426L204.655 138.707C205.632 137.211 209.275 132.053 212.75 127.245C216.226 122.437 219.069 118.275 219.069 117.995C219.069 117.716 217.524 117.487 215.635 117.487C212.426 117.487 211.718 118.159 204.825 127.737L197.45 137.987L192.259 138.289L187.069 138.592V128.039V117.487H184.069H181.069V141.987ZM344.172 121.237C339.585 138.897 333.069 164.957 333.069 165.641C333.069 166.106 334.387 166.487 335.998 166.487C339.35 166.487 338.847 167.814 346.128 139.737L350.342 123.487H354.557H358.772L364.255 144.737L369.737 165.987L372.903 166.3C374.644 166.473 376.069 166.275 376.069 165.862C376.069 165.449 373.369 154.632 370.069 141.824C366.769 129.017 364.069 118.302 364.069 118.013C364.069 117.724 359.811 117.487 354.608 117.487H345.146L344.172 121.237ZM419.207 120.737C417.192 127.171 408.069 163.346 408.069 164.899C408.069 165.987 408.988 166.487 410.987 166.487C413.762 166.487 413.994 166.143 415.709 159.487L417.512 152.487H429.752H441.992L443.084 156.737C445.404 165.762 445.532 165.968 449.031 166.31C451.436 166.546 452.213 166.273 451.878 165.31C451.624 164.583 448.765 153.525 445.525 140.737L439.634 117.487H429.929H420.224L419.207 120.737ZM270.246 122.67C262.562 124.383 256.08 132.993 256.08 141.487C256.08 145.338 258.083 151.687 260.267 154.76C263.234 158.935 269.062 161.487 275.628 161.487C285.807 161.487 291.926 156.592 294.231 146.605C297.751 131.354 285.616 119.244 270.246 122.67ZM424.666 125.237C422.249 133.109 419.362 145.446 419.828 145.912C420.684 146.769 440.069 146.608 440.069 145.744C440.069 145.336 438.836 140.161 437.328 134.244L434.587 123.487H429.895C426.299 123.487 425.078 123.895 424.666 125.237ZM6.06932 185.487V188.487H267.569H529.069V185.487V182.487H267.569H6.06932V185.487ZM15.0683 206.737C15.0623 212.362 5.86931 395.08 5.40831 398.737L4.80932 403.487H267.578H530.348L529.717 398.237C529.37 395.349 529.082 350.8 529.078 299.237L529.069 205.487H525.069H521.069V230.172V254.857L515.819 274.258L510.569 293.659L510.069 249.823L509.569 205.987H505.569H501.569L501.314 301.237L501.059 396.487H485.564C477.042 396.487 470.066 396.375 470.062 396.237C470.058 396.099 467.6 371.816 464.601 342.273L459.147 288.559L463.592 250.273C466.037 229.216 468.157 210.637 468.303 208.987C468.556 206.132 468.367 205.972 464.404 205.684L460.24 205.38L459.523 212.184C459.129 215.926 457.161 233.612 455.151 251.487C451.733 281.88 451.369 283.987 449.533 283.987C447.619 283.987 447.562 282.99 447.307 244.737L447.046 205.487H443.057H439.069V300.987V396.487H422.069H405.069V300.987V205.487H401.069H397.069V230.76V256.033L391.64 275.51L386.21 294.987L386.14 250.237L386.069 205.487H382.069H378.069V300.987V396.487H356.569H335.069V305.535V214.582L341.319 214.285L347.569 213.987V209.987V205.987H331.069H314.569V209.987V213.987L320.819 214.285L327.069 214.582V305.535V396.487H306.074H285.079L284.824 301.237L284.569 205.987H280.569H276.569L276.028 233.487L275.487 260.987L270.71 277.472C268.082 286.538 265.738 294.151 265.501 294.388C265.263 294.626 265.069 274.72 265.069 250.154V205.487H261.069H257.069V300.987V396.487H240.069H223.069V300.987V205.487H211.628C205.335 205.487 199.987 205.824 199.742 206.237C199.497 206.65 198.749 243.887 198.08 288.987C197.411 334.087 196.572 374.812 196.216 379.487L195.569 387.987L192.319 388.3C189.256 388.596 189.069 388.84 189.069 392.55V396.487H175.569H162.069L162.084 392.737C162.11 386.438 154.06 216.352 153.468 210.695L152.915 205.402L145.742 205.695L138.569 205.987L137.847 217.987C137.449 224.587 135.549 263.737 133.623 304.987C131.698 346.237 129.845 383.699 129.506 388.237L128.889 396.487H113.479H98.0693V300.987V205.487H94.0814H90.0923L89.8314 244.737L89.5693 283.987H84.0693H78.5693L78.3073 244.737L78.0463 205.487H74.0573H70.0693V300.987V396.487H54.5693H39.0693V394.178C39.0693 390.08 31.1643 224.305 30.5123 214.737L29.8823 205.487H22.4763C17.2183 205.487 15.0693 205.85 15.0683 206.737ZM206.204 298.237C205.541 344.3 204.761 383.897 204.473 386.232C204.167 388.708 202.894 391.73 201.42 393.482L198.891 396.487H206.98H215.069V305.487V214.487H211.24H207.411L206.204 298.237ZM145.066 226.57C145.065 229 143.943 250.562 142.575 274.487C141.206 298.412 140.082 318.324 140.078 318.737C140.073 319.15 142.544 319.487 145.569 319.487H151.069L151.05 314.237C151.016 304.723 146.184 223.268 145.62 222.705C145.317 222.402 145.068 224.141 145.066 226.57ZM22.0693 225.355C22.0693 226.566 21.1603 243.628 20.0483 263.272C18.9363 282.915 17.9243 303.487 17.7983 308.987L17.5693 318.987L22.3293 319.292C25.8333 319.517 27.2413 319.204 27.6623 318.106C28.2933 316.46 23.3053 224.39 22.5443 223.628C22.2833 223.367 22.0693 224.144 22.0693 225.355ZM391.235 305.262L386.069 324.037V360.262V396.487H391.569H397.069V341.487C397.069 311.237 396.919 286.487 396.735 286.487C396.551 286.487 394.076 294.936 391.235 305.262ZM518.718 291.737C517.897 294.625 515.615 302.881 513.647 310.085L510.069 323.183V359.835V396.487H515.569H521.069V341.487C521.069 311.237 520.876 286.487 520.64 286.487C520.404 286.487 519.539 288.849 518.718 291.737ZM270.259 306.362L265.069 325.238V360.862V396.487H270.569H276.069V341.987C276.069 312.012 275.93 287.487 275.759 287.487C275.589 287.487 273.114 295.981 270.259 306.362ZM78.0693 344.487V396.487H84.0693H90.0693V344.487V292.487H84.0693H78.0693V344.487ZM447.069 344.487V396.487H454.475C461.004 396.487 461.838 396.28 461.51 394.737C461.305 393.775 459.075 371.387 456.553 344.987C454.031 318.587 451.757 295.974 451.5 294.737C451.204 293.319 450.299 292.487 449.05 292.487C447.101 292.487 447.069 293.32 447.069 344.487ZM16.7293 328.237C16.4773 328.65 15.9883 341.362 15.6433 356.487C15.2983 371.612 14.7673 386.8 14.4633 390.237L13.9103 396.487H22.6003H31.2903L30.6923 384.737C30.3633 378.275 29.8083 362.75 29.4593 350.237L28.8243 327.487H23.0063C19.8053 327.487 16.9813 327.824 16.7293 328.237ZM139.734 328.237C139.485 328.65 138.949 344.175 138.545 362.737L137.809 396.487H146.01H154.211L153.617 376.237C153.291 365.099 152.762 349.574 152.442 341.737L151.861 327.487H146.024C142.814 327.487 139.983 327.824 139.734 328.237ZM5.06932 423.487V426.487H267.569H530.069V423.487V420.487H267.569H5.06932V423.487Z" fill="black"/>
</svg>
