<?xml version="1.0" encoding="UTF-8"?>
<!DOCTYPE svg PUBLIC "-//W3C//DTD SVG 1.1//EN" "http://www.w3.org/Graphics/SVG/1.1/DTD/svg11.dtd">
<!-- Creator: CorelDRAW X6 -->
<svg xmlns="http://www.w3.org/2000/svg" xml:space="preserve" width="25.4mm" height="25.4mm" version="1.1" style="shape-rendering:geometricPrecision; text-rendering:geometricPrecision; image-rendering:optimizeQuality; fill-rule:evenodd; clip-rule:evenodd"
viewBox="0 0 2540 2540"
 xmlns:xlink="http://www.w3.org/1999/xlink">
 <defs>
  <style type="text/css">
   <![CDATA[
    .fil1 {fill:#078548}
    .fil0 {fill:#DEAA01}
   ]]>
  </style>
 </defs>
 <g id="Слой_x0020_1">
  <metadata id="CorelCorpID_0Corel-Layer"/>
  <path class="fil0" d="M1435 1911l-5 -50c-17,-21 -47,-44 -73,-58 -12,-17 -21,-30 -34,-47 -7,-22 -1,-46 -14,-67 -5,-14 -14,-11 -21,-19l-27 6c-5,-11 -6,-2 -10,-14l7 -6 -6 -1c-9,7 -11,21 -15,35 -12,21 -7,45 -14,67 -12,17 -21,29 -34,47 -26,15 -56,36 -73,58l-5 50 31 -5 4 45 -184 1 -1 -30c6,0 12,-2 19,-2 7,0 15,-1 21,-1 -4,-34 0,-52 10,-77 11,-10 46,-37 45,-60 -12,19 -34,4 -50,22 -12,-1 -14,1 -26,-10 -6,-6 0,-22 9,-36l40 -26c-3,-16 11,-15 21,-21 -4,-26 -4,-72 2,-94 14,-39 47,-78 99,-71 37,9 45,29 52,51 0,10 5,25 -5,30 2,1 -15,2 -17,4 -1,1 -6,6 -6,9 2,5 -19,11 -16,12 25,-7 47,1 50,17 7,-7 12,-20 21,-26l27 -10 34 -4c-1,2 -1,5 -1,6l27 6c7,7 14,20 21,26 2,-15 25,-24 50,-16 2,-1 -19,-9 -16,-14 -1,-3 -5,-6 -6,-7 -4,-2 -20,-4 -17,-5 -10,-5 -5,-19 -5,-30 7,-21 15,-42 52,-50 52,-9 86,31 99,71 6,21 6,68 2,94 9,6 24,4 21,21l40 26c9,12 15,29 7,36 -11,10 -12,7 -25,9 -16,-19 -39,-2 -51,-21 -1,21 35,50 46,60 10,24 14,42 10,77 6,0 14,0 20,1 7,0 14,1 20,1l-1 31 -184 -1 4 -45 31 4zm63 -180c-5,-1 -9,-4 -7,-5 0,-1 5,-1 9,0 5,1 7,4 7,5 0,2 -5,2 -9,0zm-24 -26c4,-29 16,-68 -9,-108 -14,-22 -34,-36 -57,-34 -26,4 -46,14 -51,36l16 -2 14 2c24,-17 48,-12 52,24 -1,12 -7,36 -14,58 -4,11 -6,22 -9,31 -1,5 -1,9 -1,14 0,11 2,22 9,34 2,-25 7,-55 50,-55zm-430 30c5,-1 7,-4 7,-6 -1,-1 -5,-1 -9,0 -5,2 -9,5 -7,6 0,1 4,1 9,0zm32 -31c-4,-29 -15,-68 10,-108 12,-22 32,-36 57,-32 26,4 45,12 51,35l-16 -2 -14 2c-24,-16 -48,-11 -52,24 2,19 15,65 22,91 4,15 1,30 -7,46 -2,-25 -9,-55 -51,-55z"/>
  <path class="fil0" d="M1304 1605c10,-45 24,-75 90,-83 131,9 119,113 127,170l40 -4c-16,-94 -34,-190 -51,-286 25,-25 83,-36 75,-75 -25,-6 -53,24 -78,30 47,-169 103,-361 90,-518 -4,-12 -30,-1 -25,26 10,61 -41,351 -107,512 -2,-41 35,-206 68,-354 10,-45 6,-101 10,-159 16,-27 27,-48 57,-88 6,-96 25,-193 68,-288 -34,10 -76,71 -101,109l29 -288c10,-24 27,-37 35,-72l-35 -134 -57 131c6,27 10,57 21,76l-37 332c-4,26 -7,52 -11,77 5,249 -29,471 -118,664l-10 -47c16,-25 26,-48 24,-73 -19,-121 -36,-242 -27,-372l-12 -44c-7,56 -15,108 -9,159 11,96 21,183 15,265 -39,-142 -55,-280 -31,-403 5,-121 -7,-242 -41,-364 52,83 62,170 67,291 11,27 30,56 41,83l-7 62c-2,87 6,173 22,260 16,-40 19,-88 15,-145 -22,-60 -17,-121 12,-180 4,-86 -4,-167 -27,-242l24 -313c15,-22 24,-50 35,-77l-36 -149c-21,46 -40,96 -58,142 6,29 11,53 27,83l-26 296 -88 -566 -31 -7 -30 7 -88 566 -26 -296c16,-30 21,-55 27,-83 -19,-46 -37,-96 -58,-142l-36 149c11,27 20,55 35,77l24 313c-24,76 -31,157 -27,242 30,60 35,121 12,180 -4,57 -1,106 15,145 16,-87 25,-173 22,-260l-7 -62c11,-27 30,-56 41,-83 5,-121 15,-208 67,-291 -34,122 -46,244 -42,364 25,123 9,261 -30,403 -6,-82 4,-169 15,-265 6,-51 -1,-103 -9,-159l-12 44c9,129 -9,251 -27,372 -3,25 7,48 24,73l-10 47c-90,-193 -123,-415 -118,-664 -4,-25 -7,-51 -11,-77l-37 -332c11,-19 15,-48 21,-76l-57 -131 -35 134c6,35 25,48 35,72l25 288c-25,-39 -63,-99 -97,-109 44,96 62,193 68,288 30,40 40,61 57,88 4,58 0,114 10,159 34,148 71,313 68,354 -67,-162 -117,-451 -107,-512 5,-27 -21,-39 -25,-26 -14,158 42,349 90,518 -25,-6 -53,-36 -78,-30 -9,39 50,50 75,75 -17,96 -35,191 -51,286l40 4c7,-57 -4,-162 127,-170 66,9 80,39 90,83 23,0 46,0 68,0z"/>
  <path class="fil0" d="M1988 311c300,221 495,577 495,978 0,670 -543,1214 -1214,1214 -670,0 -1214,-543 -1214,-1214 0,-401 195,-757 495,-978 0,228 0,456 0,684l-295 295 295 295 0 421 421 0 297 297 297 -297 421 0 0 -421 295 -295 -295 -295c0,-228 0,-456 0,-684zm-1474 76c-257,216 -421,540 -421,902 0,650 527,1177 1177,1177 650,0 1177,-527 1177,-1177 0,-362 -164,-686 -421,-902l0 594 309 309 -309 309 0 445 -445 0 -311 311 -311 -311 -445 0 0 -445 -309 -309 309 -309 0 -594z"/>
  <path class="fil1" d="M442 538c-170,187 -277,432 -289,702l289 -289 0 -413zm1655 413l289 289c-12,-270 -119,-515 -289,-702l0 413zm0 676l0 411c169,-187 276,-431 288,-700l-288 288zm-478 478l-299 299c275,-12 523,-124 712,-299l-412 0zm-699 0l-412 0c188,176 437,287 712,299l-299 -299zm-478 -478l-288 -288c12,269 119,513 288,700l0 -411z"/>
 </g>
</svg>
